<svg height="512" viewBox="0 0 64 64" width="512" xmlns="http://www.w3.org/2000/svg" xmlns:xlink="http://www.w3.org/1999/xlink"><linearGradient id="gradient_ice" gradientUnits="userSpaceOnUse" x1=".119" x2="74.049" y1="69.17" y2="5.281"><stop offset="0" stop-color="#fff200"/><stop offset="1" stop-color="#cd118c"/></linearGradient><linearGradient id="gradient_ice-2" x1=".478" x2="74.407" xlink:href="#gradient_ice" y1="69.585" y2="5.696"/><linearGradient id="gradient_ice-3" x1="-12.684" x2="61.245" xlink:href="#gradient_ice" y1="54.355" y2="-9.535"/><linearGradient id="gradient_ice-4" x1="-10.356" x2="63.573" xlink:href="#gradient_ice" y1="57.049" y2="-6.841"/><path d="m60.2 14.02-15-3a.959.959 0 0 0 -.392 0l-15 3a1 1 0 0 0 -.808.98v26.194a10.948 10.948 0 0 0 4.128 8.589l5 4a10.939 10.939 0 0 0 13.744 0l5-4a10.948 10.948 0 0 0 4.128-8.589v-26.194a1 1 0 0 0 -.8-.98zm-1.2 27.174a8.96 8.96 0 0 1 -3.377 7.028l-5 4a8.953 8.953 0 0 1 -11.246 0l-5-4a8.96 8.96 0 0 1 -3.377-7.028v-25.374l14-2.8 14 2.8z" fill="url(#gradient_ice)"/><path d="m33.8 17.3a1 1 0 0 0 -.8.98v22.914a6.968 6.968 0 0 0 2.627 5.466l5 4a7 7 0 0 0 8.746 0l5-4a6.968 6.968 0 0 0 2.627-5.466v-22.915a1 1 0 0 0 -.8-.98l-11-2.2a.959.959 0 0 0 -.392 0zm21.2 1.8v22.1a4.98 4.98 0 0 1 -1.876 3.9l-5 4a5.133 5.133 0 0 1 -6.247 0l-5-4a4.976 4.976 0 0 1 -1.877-3.906v-22.094l10-2z" fill="url(#gradient_ice-2)"/><path d="m24 14h-7v-11a1 1 0 0 0 -1-1h-4a1 1 0 0 0 -1 1v11h-7a1 1 0 0 0 -1 1v3a1 1 0 0 0 1 1h4v38a1 1 0 0 0 .38.78l5 4a.984.984 0 0 0 1.24 0l5-4a1 1 0 0 0 .38-.78v-38h4a1 1 0 0 0 1-1v-3a1 1 0 0 0 -1-1zm-11-10h2v10h-2zm5 52.52-4 3.2-4-3.2v-37.52h3v13h2v-13h3zm5-39.52h-18v-1h18z" fill="url(#gradient_ice-3)"/><path d="m13 34h2v4h-2z" fill="url(#gradient_ice-4)"/></svg>